<?xml version="1.0" encoding="utf-8"?>
<!-- Generator: Adobe Illustrator 24.1.1, SVG Export Plug-In . SVG Version: 6.00 Build 0)  -->
<svg version="1.1" id="Layer_1" xmlns="http://www.w3.org/2000/svg" xmlns:xlink="http://www.w3.org/1999/xlink" x="0px" y="0px"
	 viewBox="0 0 512 512" style="enable-background:new 0 0 512 512;" xml:space="preserve">
<style type="text/css">
	.st0{fill:#FD7E14;}
</style>
<path class="st0" d="M102.4,85.3h8.5c4.7,0,8.5-3.8,8.5-8.5c0-4.7-3.8-8.5-8.5-8.5h-8.5c-4.7,0-8.5,3.8-8.5,8.5
	C93.9,81.5,97.7,85.3,102.4,85.3z"/>
<path class="st0" d="M145.1,85.3H256c4.7,0,8.5-3.8,8.5-8.5c0-4.7-3.8-8.5-8.5-8.5H145.1c-4.7,0-8.5,3.8-8.5,8.5
	C136.5,81.5,140.4,85.3,145.1,85.3z"/>
<path class="st0" d="M434.5,273.1H416c-0.1,0-0.1,0-0.2,0c-3.9,0-7.7,0.6-11.5,1.7c-0.3,0.1-0.6,0.1-0.9,0.2
	c-4.5,1.6-8.7,3.9-12.4,7c1.9-19.6,11.6-48.1,48.5-69.9c3.9-2.4,5.2-7.6,2.8-11.6c-2.4-4-7.5-5.4-11.5-3.1
	c-22.9,12.4-40.8,32.5-50.6,56.6c-0.5-1.5-0.9-2.9-1.5-4.3c-4.3-11.2-11.3-21.2-20.5-29v-144c0-14.1-11.5-25.6-25.6-25.6h-35.7
	c-3.6-10.2-13.2-17-24-17.1h-45.7C220.2,13.7,200.9,0,179.2,0s-41,13.7-48.2,34.1H85.3c-10.8,0-20.4,6.9-24,17.1H25.6
	C11.5,51.2,0,62.7,0,76.8v409.6C0,500.5,11.5,512,25.6,512h307.2c4,0,7.9-0.9,11.5-2.8c7.8,1.8,15.8,2.8,23.8,2.8H400
	c61.8,0,112-53.6,112-119.5v-36.9C512,310.1,477.3,273.1,434.5,273.1z M362.9,255.9c2.2,6.7,3.8,13.6,4.8,20.6
	c-0.9-0.4-1.6-0.9-2.5-1.1c-4.2-1.5-8.6-2.3-13.1-2.3c-0.1,0-0.1,0-0.2,0h-18.5c-2.3,0-4.6,0.2-6.9,0.4c-0.2-0.1-0.4-0.2-0.6-0.2
	c-28.2-5.7-27.9-38.6-26.8-50.4c5.4-0.6,10.9-0.9,16.4-0.9h0.2C337.1,222.1,356,235.7,362.9,255.9L362.9,255.9z M276.2,460.8h-225
	V102.4h10.1c3.6,10.2,13.2,17,24,17.1h187.7c10.8,0,20.4-6.9,24-17.1h10.1v102.5c-22,0.8-23.5,6.9-24.3,10.4
	c-3,17.6-1.5,48.6,18.8,65c-28.4,14.2-46.2,43.4-45.8,75.2v36.9C255.9,416.8,263,440.5,276.2,460.8z M341.3,76.8v133.5
	c-5.5-2.3-11.2-3.9-17.1-4.7V102.4c0-9.4-7.6-17.1-17.1-17.1h-8.5V68.3h34.1C337.5,68.3,341.3,72.1,341.3,76.8z M85.3,51.2h52.1
	c0.3,0,0.6-0.1,0.9-0.2c0.5-0.1,1.1-0.2,1.6-0.3c0.5-0.2,1.1-0.4,1.6-0.6c1.4-0.8,2.6-1.9,3.3-3.3c0.3-0.5,0.5-1,0.7-1.6
	c0.1-0.3,0.2-0.5,0.3-0.8c3.2-15.9,17.2-27.3,33.4-27.3c16.2,0,30.2,11.4,33.4,27.3c0.1,0.3,0.2,0.6,0.4,0.9
	c0.1,0.4,0.3,0.8,0.5,1.2c0.3,0.6,0.6,1.1,1,1.5c0.2,0.3,0.5,0.6,0.8,0.9c0.5,0.4,1.1,0.8,1.7,1.1c1.2,0.8,2.6,1.2,4.1,1.2h52.1
	c4.7,0,8.5,3.8,8.5,8.5v34.1c0,4.7-3.8,8.5-8.5,8.5H85.3c-4.7,0-8.5-3.8-8.5-8.5V59.7C76.8,55,80.6,51.2,85.3,51.2z M25.6,494.9
	c-4.7,0-8.5-3.8-8.5-8.5V76.8c0-4.7,3.8-8.5,8.5-8.5h34.1v17.1h-8.5c-9.4,0-17.1,7.6-17.1,17.1v358.4c0,9.4,7.6,17.1,17.1,17.1
	h238.6c6.2,6.5,13.2,12.2,20.8,17.1H25.6z M494.9,392.5c0,56.5-42.6,102.4-95,102.4h-31.9c-52.4,0-95-45.9-95-102.4v-36.9
	c0-36.1,27.1-65.4,60.4-65.4h18.8c2.4,0,4.9,0.5,7.2,1.3c9.9,4,16.3,13.7,16,24.4v8.5c0,4.7,3.8,8.5,8.5,8.5c4.7,0,8.5-3.8,8.5-8.5
	v-8.5c-0.3-10.7,6-20.4,15.9-24.4l0.4-0.1c2.2-0.7,4.5-1.1,6.8-1.1h18.8c33.3,0,60.4,29.4,60.4,65.5V392.5z"/>
<path class="st0" d="M321.6,307.6c-1.3,0.4-31.4,10.9-31.4,50.8c0,4.7,3.8,8.5,8.5,8.5c4.7,0,8.5-3.8,8.5-8.5
	c0-27.1,18.9-34.2,19.8-34.6c4.5-1.5,6.9-6.4,5.4-10.8C330.9,308.5,326,306.1,321.6,307.6z"/>
<path class="st0" d="M110.9,145.1H85.3c-9.4,0-17.1,7.6-17.1,17.1v25.6c0,9.4,7.6,17.1,17.1,17.1h25.6c9.4,0,17.1-7.6,17.1-17.1
	v-25.6C128,152.7,120.4,145.1,110.9,145.1z M85.3,187.7v-25.6h25.6v25.6H85.3z"/>
<path class="st0" d="M110.9,221.9H85.3c-9.4,0-17.1,7.6-17.1,17.1v25.6c0,9.4,7.6,17.1,17.1,17.1h25.6c9.4,0,17.1-7.6,17.1-17.1
	v-25.6C128,229.5,120.4,221.9,110.9,221.9z M85.3,264.5v-25.6h25.6v25.6H85.3z"/>
<path class="st0" d="M110.9,298.7H85.3c-9.4,0-17.1,7.6-17.1,17.1v25.6c0,9.4,7.6,17.1,17.1,17.1h25.6c9.4,0,17.1-7.6,17.1-17.1
	v-25.6C128,306.3,120.4,298.7,110.9,298.7z M85.3,341.3v-25.6h25.6v25.6H85.3z"/>
<path class="st0" d="M110.9,375.5H85.3c-9.4,0-17.1,7.6-17.1,17.1v25.6c0,9.4,7.6,17.1,17.1,17.1h25.6c9.4,0,17.1-7.6,17.1-17.1
	v-25.6C128,383.1,120.4,375.5,110.9,375.5z M85.3,418.1v-25.6h25.6v25.6H85.3z"/>
<path class="st0" d="M153.6,187.7h119.5c4.7,0,8.5-3.8,8.5-8.5c0-4.7-3.8-8.5-8.5-8.5H153.6c-4.7,0-8.5,3.8-8.5,8.5
	C145.1,183.9,148.9,187.7,153.6,187.7z"/>
<path class="st0" d="M247.5,247.5h-93.9c-4.7,0-8.5,3.8-8.5,8.5c0,4.7,3.8,8.5,8.5,8.5h93.9c4.7,0,8.5-3.8,8.5-8.5
	C256,251.3,252.2,247.5,247.5,247.5z"/>
<path class="st0" d="M230.4,324.3h-76.8c-4.7,0-8.5,3.8-8.5,8.5c0,4.7,3.8,8.5,8.5,8.5h76.8c4.7,0,8.5-3.8,8.5-8.5
	C238.9,328.1,235.1,324.3,230.4,324.3z"/>
<path class="st0" d="M230.4,401.1h-76.8c-4.7,0-8.5,3.8-8.5,8.5c0,4.7,3.8,8.5,8.5,8.5h76.8c4.7,0,8.5-3.8,8.5-8.5
	C238.9,404.9,235.1,401.1,230.4,401.1z"/>
</svg>
