<?xml version="1.0" encoding="utf-8"?>
<!-- Generator: Adobe Illustrator 24.1.1, SVG Export Plug-In . SVG Version: 6.00 Build 0)  -->
<svg version="1.1" id="Capa_1" xmlns="http://www.w3.org/2000/svg" xmlns:xlink="http://www.w3.org/1999/xlink" x="0px" y="0px"
	 viewBox="0 0 512 512" style="enable-background:new 0 0 512 512;" xml:space="preserve">
<style type="text/css">
	.st0{fill:#FD7E14;}
</style>
<g>
	<path class="st0" d="M470,403.1c0-14.4-11.7-26.1-26.1-26.1c-14.4,0-26.1,11.7-26.1,26.1c0,14.4,11.7,26.1,26.1,26.1
		C458.3,429.2,470,417.5,470,403.1z M432.8,403.1c0-6.1,5-11.1,11.1-11.1s11.1,5,11.1,11.1s-5,11.1-11.1,11.1
		S432.8,409.2,432.8,403.1z"/>
	<path class="st0" d="M42,391.1c0,16.8,13.6,30.4,30.4,30.4s30.4-13.6,30.4-30.4c0-16.8-13.6-30.4-30.4-30.4S42,374.3,42,391.1z
		 M87.8,391.1c0,8.5-6.9,15.4-15.4,15.4c-8.5,0-15.4-6.9-15.4-15.4s6.9-15.4,15.4-15.4C80.9,375.7,87.8,382.6,87.8,391.1z"/>
	<path class="st0" d="M464.5,353.3l-110.6-6.5c-4.1-0.3-7.7,2.9-7.9,7c-0.2,4.1,2.9,7.7,7,7.9l110.6,6.5
		c18.7,1.2,33.4,16.9,33.4,35.7c0,19.7-16,35.7-35.7,35.7H62.5c-26.2,0-47.5-21.3-47.5-47.5c0-13.3,5.3-25.6,15-34.7
		c9.7-9.1,22.3-13.6,35.6-12.7l254.7,15.1c4.1,0.2,7.7-2.9,7.9-7c0.2-4.1-2.9-7.7-7-7.9L97.6,331.6V174.3l85.1,37.2
		c3.9,1.7,8,2.6,12.2,2.6c12.2,0,23.2-7.2,28-18.3c3.3-7.5,3.4-15.8,0.4-23.4c-3-7.6-8.7-13.6-16.2-16.9l-42.9-18.7
		c-3.8-1.7-8.2,0.1-9.9,3.9c-1.7,3.8,0.1,8.2,3.9,9.9l42.9,18.7c3.8,1.7,6.7,4.7,8.3,8.6c1.5,3.9,1.4,8.1-0.2,11.9
		c-2.5,5.7-8.1,9.3-14.3,9.3c-2.1,0-4.2-0.4-6.2-1.3l-118-51.5c-2.9-1.3-5.4-3.4-7-6.1L17.3,64.4c-2.2-3.5-2.8-7.7-1.9-11.8
		s3.5-7.5,7-9.6c3.5-2.2,7.7-2.8,11.8-1.9c4,1,7.5,3.5,9.6,7l42.7,69.6c0.8,1.3,2,2.3,3.4,3l38.5,16.8c3.8,1.7,8.2-0.1,9.9-3.9
		c1.7-3.8-0.1-8.2-3.9-9.9l-36.3-15.9L56.7,40.2c-4.3-7-11-11.8-18.9-13.8c-7.9-1.9-16.1-0.6-23.1,3.7c-7,4.3-11.8,11-13.8,18.9
		C-1,57,0.3,65.2,4.5,72.2L46,139.8c0,0.1,0,0.2,0,0.3v108.6c0,4.1,3.4,7.5,7.5,7.5s7.5-3.4,7.5-7.5V158c1.2,0.8,2.5,1.4,3.8,2
		l17.8,7.8v162.9l-16-0.9c-1.9-0.1-3.8-0.1-5.6-0.1v-48.2c0-4.1-3.4-7.5-7.5-7.5s-7.5,3.4-7.5,7.5v50.4c-9.7,2.6-18.6,7.6-26.2,14.7
		C7,358.5,0,374.7,0,392.1c0,34.2,27.6,62.1,61.7,62.5v19.2c0,6.9,5.6,12.5,12.5,12.5h47.6c6.9,0,12.5-5.6,12.5-12.5v-19.2h243.4
		v19.2c0,6.9,5.6,12.5,12.5,12.5h47.6c6.9,0,12.5-5.6,12.5-12.5v-19.2h11c28,0,50.7-22.8,50.7-50.7C512,377.3,491.2,355,464.5,353.3
		L464.5,353.3z M119.3,471.4H76.7v-16.7h42.6V471.4z M435.3,471.4h-42.6v-16.7h42.6V471.4z"/>
	<path class="st0" d="M127.3,390.7c-0.2,4.1,3,7.7,7.1,7.9l245.9,12c0.1,0,0.2,0,0.4,0c4,0,7.3-3.1,7.5-7.1c0.2-4.1-3-7.7-7.1-7.9
		l-245.9-12C131,383.4,127.5,386.6,127.3,390.7z"/>
</g>
</svg>
